:version 1.10
:name ASF
:units
  mass 1
  length 1
  angle deg
:documentation
  ASF file generated by Kaydara
:root
  axis xyz
  order  tx ty tz rx ry rz
  position 0 0 0
  orientation 0 0 0
:bonedata
  begin
    id 1
    name RightUpLegDummy
    direction -0.718183 -0.695806 0.00816078
    length 4.904
    axis 0 0 0 xyz
  end
  begin
    id 2
    name RightUpLeg
    direction -0.0736652 -0.994202 0.0783343
    length 17.4976
    axis -2.72909 -3.00389 -4.00133 xyz
    dof rx ry rz
  end
  begin
    id 3
    name RightLeg
    direction -0.0389037 -0.994596 -0.0962598
    length 16.5821
    axis 3.95836 -18.5909 -4.46993 xyz
    dof rx ry rz
  end
  begin
    id 4
    name RightFoot
    direction -0.311643 -0.412678 0.855906
    length 3.77069
    axis -1.99483 -18.8351 -3.27644 xyz
    dof rx ry rz
  end
  begin
    id 5
    name RightToes
    direction -0.317852 0.0389852 0.947339
    length 3.85082
    axis -2.00228 -18.1713 -3.25211 xyz
    dof rx ry rz
  end
  begin
    id 6
    name SpineDummy
    direction 8.3039e-015 1 4.44677e-016
    length 4.6813
    axis 0 0 0 xyz
  end
  begin
    id 7
    name Spine
    direction -0.000262373 0.999988 0.00493267
    length 10.1015
    axis -0.00246081 0.00062579 0.0150362 xyz
    dof rx ry rz
  end
  begin
    id 8
    name Spine1
    direction 0 0 0
    length 0
    axis -0.00349562 0.000650293 0.0196666 xyz
    dof rx ry rz
  end
  begin
    id 9
    name HEadDummy
    direction -0.000343232 0.999999 0.00123745
    length 3.43865
    axis -0.00349562 0.000650293 0.0196666 xyz
  end
  begin
    id 10
    name HEad
    direction -0.0461221 0.980933 0.188796
    length 5.12695
    axis -0.00351404 -7.04812 0.0199272 xyz
    dof rx ry rz
  end
  begin
    id 11
    name LeftShoulder1Dummy
    direction 0.998904 -0.0399089 -0.0244534
    length 3.5433
    axis -0.00349562 0.000650293 0.0196666 xyz
  end
  begin
    id 12
    name LeftShoulder1
    direction 0.99951 1.64443e-005 0.0312999
    length 4.05031
    axis -0.00349562 0.000650293 0.0196666 xyz
    dof rx ry rz
  end
  begin
    id 13
    name LeftArm
    direction 0.984791 0.0515299 0.165927
    length 12.9126
    axis -64.823 -10.7743 5.20463 xyz
    dof rx ry rz
  end
  begin
    id 14
    name LeftForeArm
    direction 0.984968 0.0534808 0.16425
    length 10.8596
    axis -30.0462 -7.70601 1.87451 xyz
    dof rx ry rz
  end
  begin
    id 15
    name LeftHand
    direction 0.975871 0.0289682 0.216418
    length 6.62295
    axis -20.1348 -6.98077 1.86072 xyz
    dof rx ry rz
  end
  begin
    id 16
    name RightShoulderDummy
    direction -0.998877 -0.0405946 -0.0244307
    length 3.5433
    axis -0.00349562 0.000650293 0.0196666 xyz
  end
  begin
    id 17
    name RightShoulder
    direction -0.998933 -0.0249743 -0.0388558
    length 4.05031
    axis -0.0205316 -4.02113 1.41395 xyz
    dof rx ry rz
  end
  begin
    id 18
    name RightArm
    direction -0.997559 0.068664 0.0127103
    length 12.9638
    axis -67.3882 1.84188 -6.15987 xyz
    dof rx ry rz
  end
  begin
    id 19
    name RightForeArm
    direction -0.991508 0.0912848 0.0926241
    length 10.8312
    axis -22.1975 3.41087 -4.28711 xyz
    dof rx ry rz
  end
  begin
    id 20
    name RightHand
    direction -0.989262 0.0600788 0.133232
    length 6.57864
    axis -12.2911 2.17515 -4.39675 xyz
    dof rx ry rz
  end
  begin
    id 21
    name LeftUpLegDummy
    direction 0.718183 -0.695806 0.00816078
    length 4.904
    axis 0 0 0 xyz
  end
  begin
    id 22
    name LeftUpLeg
    direction 0.0831398 -0.99469 0.0606531
    length 17.4976
    axis -1.71016 2.29552 4.63832 xyz
    dof rx ry rz
  end
  begin
    id 23
    name LeftLeg
    direction 0.0498442 -0.991778 -0.117862
    length 16.5821
    axis 5.13757 15.5727 5.13348 xyz
    dof rx ry rz
  end
  begin
    id 24
    name LeftFoot
    direction 0.269026 -0.433896 0.85986
    length 3.77069
    axis -0.576502 15.6961 4.10267 xyz
    dof rx ry rz
  end
  begin
    id 25
    name LeftToes
    direction 0.277311 0.0251143 0.960452
    length 3.85048
    axis -0.576502 15.6961 4.10267 xyz
    dof rx ry rz
  end
:hierarchy
  begin
    root RightUpLegDummy SpineDummy LeftUpLegDummy
    RightUpLegDummy RightUpLeg
    RightUpLeg RightLeg
    RightLeg RightFoot
    RightFoot RightToes
    SpineDummy Spine
    Spine Spine1
    Spine1 HEadDummy LeftShoulder1Dummy RightShoulderDummy
    HEadDummy HEad
    LeftShoulder1Dummy LeftShoulder1
    LeftShoulder1 LeftArm
    LeftArm LeftForeArm
    LeftForeArm LeftHand
    RightShoulderDummy RightShoulder
    RightShoulder RightArm
    RightArm RightForeArm
    RightForeArm RightHand
    LeftUpLegDummy LeftUpLeg
    LeftUpLeg LeftLeg
    LeftLeg LeftFoot
    LeftFoot LeftToes
  end

:SAMPLES-PER-SECOND 30
:FULLY-SPECIFIED
:DEGREES
31
root  2.00133 39.444 -106.863 1.62168 -4.7156 -0.330954
RightUpLeg  -2.61185 0.251783 6.25693
RightLeg  8.80445 -9.48826 -1.20174
RightFoot  -9.58995 0.0501162 -0.732907
RightToes  5.82077e-011 -3.18055e-015 -2.98177e-016
Spine  1.18081 0.589478 3.57082
Spine1  5.05237 0.428129 2.37903
HEad  -10.8971 3.33364 -0.903783
LeftShoulder1  -3.88251e-019 9.70628e-020 -3.87848e-018
LeftArm  -26.15 53.7124 -76.0599
LeftForeArm  4.12666 -14.3774 -4.01725
LeftHand  -0.588515 -1.81371 10.1944
RightShoulder  8.23901 10.9125 38.1932
RightArm  11.4012 -43.6312 13.5066
RightForeArm  14.7309 15.1412 -4.75474
RightHand  -1.13 3.1012 -15.2508
LeftUpLeg  -6.24332 0.52646 -1.91535
LeftLeg  14.7088 3.97649 6.19539
LeftFoot  -9.43202 0.0515069 -2.44269
LeftToes  7.79675e-011 9.80247e-012 -3.28897e-011
32
root  1.93695 39.2009 -106.685 1.73056 -5.35077 -0.894845
RightUpLeg  -3.81974 0.0446708 6.88352
RightLeg  11.8202 -8.54624 -2.31348
RightFoot  -11.3871 0.0304097 0.13552
RightToes  5.82077e-011 -3.18055e-015 -2.98177e-016
Spine  1.6022 1.0812 5.02045
Spine1  4.86948 1.05575 2.62336
HEad  -10.0104 3.07179 -0.925507
LeftShoulder1  -3.88251e-019 9.70628e-020 -3.87848e-018
LeftArm  -26.5181 53.9788 -76.1564
LeftForeArm  3.29408 -14.8845 -3.71288
LeftHand  -0.685252 -2.6215 10.6271
RightShoulder  8.24843 10.9191 38.2239
RightArm  12.4773 -43.6695 13.3617
RightForeArm  13.9994 15.5635 -4.8169
RightHand  -1.1275 3.11893 -15.1865
LeftUpLeg  -8.16152 3.4858 -1.07105
LeftLeg  19.0538 2.03964 7.01267
LeftFoot  -11.5019 0.0181039 -3.55386
LeftToes  7.79675e-011 9.80247e-012 -3.28897e-011
33
root  1.89107 39.0226 -106.459 1.41085 -5.11818 -1.2884
RightUpLeg  -3.85917 -0.310576 7.26184
RightLeg  13.6001 -8.31832 -2.93531
RightFoot  -12.7159 0.033811 0.811631
RightToes  5.82077e-011 -3.18055e-015 -2.98177e-016
Spine  2.11982 1.27849 6.0503
Spine1  5.0641 1.36698 2.85649
HEad  -9.20737 2.702 -0.796091
LeftShoulder1  -3.88251e-019 9.70628e-020 -3.87848e-018
LeftArm  -27.6096 54.0227 -76.4201
LeftForeArm  1.27202 -14.5564 -3.3724
LeftHand  -0.749721 -2.92597 11.1771
RightShoulder  8.28073 10.935 38.3442
RightArm  12.8636 -43.3493 13.3313
RightForeArm  14.7019 15.6235 -4.72593
RightHand  -1.19131 4.02716 -14.5608
LeftUpLeg  -10.1731 5.86932 -0.565437
LeftLeg  23.759 1.75317 8.40905
LeftFoot  -11.8902 0.0235798 -5.10845
LeftToes  7.79675e-011 9.80247e-012 -3.28897e-011
34
root  1.89979 38.915 -106.191 0.92025 -3.94176 -1.25774
RightUpLeg  -3.25955 -1.02259 7.03578
RightLeg  14.5636 -8.68647 -3.2384
RightFoot  -13.7073 0.0464586 1.29285
RightToes  5.82077e-011 -3.18055e-015 -2.98177e-016
Spine  2.76297 1.03047 6.77167
Spine1  5.12675 1.27644 2.66833
HEad  -8.75181 2.32055 -0.606599
LeftShoulder1  -3.88251e-019 9.70628e-020 -3.87848e-018
LeftArm  -28.6114 54.3301 -76.4437
LeftForeArm  -1.38908 -14.203 -3.08911
LeftHand  -0.792617 -3.01178 11.6778
RightShoulder  8.31591 10.9506 38.4789
RightArm  12.7923 -42.9337 13.5452
RightForeArm  16.4209 15.4888 -4.54203
RightHand  -1.27044 5.37583 -13.604
LeftUpLeg  -12.3707 6.91488 -0.83162
LeftLeg  27.9551 3.22237 10.6754
LeftFoot  -10.7915 0.0874607 -5.84627
LeftToes  7.79675e-011 9.80247e-012 -3.28897e-011
35
root  1.94152 38.8554 -105.878 0.553761 -2.68891 -0.800152
RightUpLeg  -2.60668 -1.89186 6.28632
RightLeg  15.2248 -8.98886 -3.44957
RightFoot  -14.5393 0.0626221 1.60884
RightToes  5.82077e-011 -3.18055e-015 -2.98177e-016
Spine  3.58276 0.671284 7.31299
Spine1  4.56781 1.15689 1.89246
HEad  -8.47361 1.9968 -0.452301
LeftShoulder1  -3.88251e-019 9.70628e-020 -3.87848e-018
LeftArm  -28.9041 55.2429 -75.93
LeftForeArm  -2.92091 -14.0948 -2.93559
LeftHand  -0.840631 -3.27473 11.9905
RightShoulder  8.3288 10.9552 38.5306
RightArm  13.3537 -42.8661 14.0012
RightForeArm  17.3283 15.6165 -4.43519
RightHand  -1.22049 5.21107 -13.2955
LeftUpLeg  -14.5447 7.36546 -1.77084
LeftLeg  30.8664 5.19895 13.0694
LeftFoot  -9.71637 0.13384 -5.42679
LeftToes  7.79675e-011 9.80247e-012 -3.28897e-011
36
root  1.96952 38.8308 -105.507 0.277735 -2.22665 -0.0949126
RightUpLeg  -1.91804 -2.59038 5.32817
RightLeg  15.6498 -8.64618 -3.61019
RightFoot  -15.2581 0.0827812 2.02255
RightToes  5.82077e-011 -3.18055e-015 -2.98177e-016
Spine  4.37533 0.695829 7.59942
Spine1  3.86942 1.44702 0.810131
HEad  -8.3196 1.66528 -0.367723
LeftShoulder1  -3.88251e-019 9.70628e-020 -3.87848e-018
LeftArm  -28.4865 56.509 -75.036
LeftForeArm  -2.70519 -14.0122 -2.92857
LeftHand  -0.8622 -3.48464 11.9969
RightShoulder  8.29329 10.9383 38.3975
RightArm  15.3948 -43.2828 14.6917
RightForeArm  16.1292 16.3934 -4.75928
RightHand  -1.06111 3.53624 -13.6597
LeftUpLeg  -16.284 8.52454 -2.91572
LeftLeg  32.1829 6.21211 14.3458
LeftFoot  -9.45996 0.128964 -4.86601
LeftToes  7.79675e-011 9.80247e-012 -3.28897e-011
37
root  1.98191 38.8272 -105.08 -0.0549184 -2.64245 0.643465
RightUpLeg  -1.05753 -3.0066 4.39036
RightLeg  15.8163 -7.66147 -3.70959
RightFoot  -15.855 0.109517 2.63893
RightToes  5.82077e-011 -3.18055e-015 -2.98177e-016
Spine  4.9036 1.2473 7.69264
Spine1  3.73746 2.24116 -0.278001
HEad  -8.45138 1.27456 -0.330408
LeftShoulder1  -3.88251e-019 9.70628e-020 -3.87848e-018
LeftArm  -27.7021 57.7673 -74.0752
LeftForeArm  -2.0253 -13.9444 -3.05196
LeftHand  -0.817209 -3.27987 11.6537
RightShoulder  8.21238 10.9011 38.0897
RightArm  18.8148 -43.8517 15.6173
RightForeArm  13.1897 17.7083 -5.85921
RightHand  -1.00344 2.97036 -13.775
LeftUpLeg  -17.5911 10.5862 -3.908
LeftLeg  32.2232 5.73051 14.0629
LeftFoot  -9.15539 0.145439 -4.93963
LeftToes  7.79675e-011 9.80247e-012 -3.28897e-011
38
root  2.01835 38.8134 -104.601 -0.413824 -3.31943 1.2915
RightUpLeg  -0.126632 -3.32018 3.49561
RightLeg  15.9869 -6.55271 -3.83559
RightFoot  -16.4565 0.139358 3.13415
RightToes  5.82077e-011 -3.18055e-015 -2.98177e-016
Spine  5.25106 1.9347 7.91056
Spine1  3.98689 3.17638 -1.40512
HEad  -8.86199 0.906615 -0.283783
LeftShoulder1  -3.88251e-019 9.70628e-020 -3.87848e-018
LeftArm  -26.8089 59.0789 -73.0619
LeftForeArm  -1.96595 -14.0596 -3.23793
LeftHand  -0.730225 -2.9067 10.9149
RightShoulder  8.15267 10.8737 37.8612
RightArm  22.8125 -44.0558 16.6755
RightForeArm  9.64831 19.0785 -7.52838
RightHand  -1.14067 4.47684 -13.3291
LeftUpLeg  -18.7882 12.3669 -4.6742
LeftLeg  31.512 4.41165 12.8807
LeftFoot  -8.19491 0.209188 -5.39719
LeftToes  7.79675e-011 9.80247e-012 -3.28897e-011
39
root  2.10804 38.776 -104.066 -0.680639 -3.60086 1.93432
RightUpLeg  0.778224 -3.81795 2.42604
RightLeg  16.3287 -5.69674 -3.95142
RightFoot  -17.2244 0.173493 3.42387
RightToes  5.82077e-011 -3.18055e-015 -2.98177e-016
Spine  5.59343 2.33667 8.20489
Spine1  4.02541 3.81009 -2.56559
HEad  -9.36048 0.574252 -0.244011
LeftShoulder1  -3.88251e-019 9.70628e-020 -3.87848e-018
LeftArm  -26.0608 60.579 -72.0277
LeftForeArm  -2.12389 -14.1573 -3.36968
LeftHand  -0.652578 -2.72586 10.0021
RightShoulder  8.15427 10.8738 37.8687
RightArm  26.8541 -43.7314 17.7498
RightForeArm  5.90991 20.2426 -9.23461
RightHand  -1.2347 5.57576 -13.001
LeftUpLeg  -20.0018 12.7478 -5.36678
LeftLeg  30.242 3.26664 11.6121
LeftFoot  -7.35196 0.281329 -6.00519
LeftToes  7.79675e-011 9.80247e-012 -3.28897e-011
40
root  2.24406 38.725 -103.482 -0.909479 -3.37767 2.5439
RightUpLeg  1.82642 -4.44791 1.22781
RightLeg  16.6324 -5.10726 -3.96381
RightFoot  -18.0837 0.226206 3.98096
RightToes  5.82077e-011 -3.18055e-015 -2.98177e-016
Spine  6.20721 2.40077 8.46422
Spine1  3.49958 4.05937 -3.71052
HEad  -9.77759 0.219604 -0.260119
LeftShoulder1  -3.88251e-019 9.70628e-020 -3.87848e-018
LeftArm  -25.7244 62.1744 -71.223
LeftForeArm  -1.79662 -13.7778 -3.38986
LeftHand  -0.606823 -2.64578 9.40834
RightShoulder  8.18629 10.8863 37.9962
RightArm  30.7027 -43.1537 18.7473
RightForeArm  2.37652 21.2679 -10.7394
RightHand  -1.15787 4.72569 -13.2006
LeftUpLeg  -21.0542 12.0607 -5.93
LeftLeg  28.4016 2.55463 10.4582
LeftFoot  -7.19327 0.323205 -6.64142
LeftToes  7.79675e-011 9.80247e-012 -3.28897e-011
41
root  2.41307 38.6697 -102.864 -1.20707 -2.79961 2.93895
RightUpLeg  3.22863 -4.95849 0.210998
RightLeg  16.616 -4.89373 -3.90381
RightFoot  -18.7831 0.293743 4.82787
RightToes  5.82077e-011 -3.18055e-015 -2.98177e-016
Spine  7.13654 2.29314 8.71172
Spine1  2.63008 4.0757 -4.69017
HEad  -10.0912 -0.184263 -0.356753
LeftShoulder1  -3.88251e-019 9.70628e-020 -3.87848e-018
LeftArm  -25.92 63.5977 -70.9245
LeftForeArm  -1.21207 -12.6873 -3.36025
LeftHand  -0.573411 -2.31515 9.28909
RightShoulder  8.17315 10.877 37.9534
RightArm  33.3709 -42.6291 19.6513
RightForeArm  0.425994 22.2573 -11.9115
RightHand  -1.0919 4.03651 -13.3301
LeftUpLeg  -21.8502 11.1092 -6.21314
LeftLeg  26.1559 1.95295 9.30713
LeftFoot  -7.00134 0.337874 -6.70453
LeftToes  7.79675e-011 9.80247e-012 -3.28897e-011
42
root  2.62044 38.5901 -102.206 -1.52675 -1.95297 3.10054
RightUpLeg  4.87622 -5.36497 -0.589006
RightLeg  16.4577 -5.16858 -3.88754
RightFoot  -19.364 0.349952 5.3815
RightToes  5.82077e-011 -3.18055e-015 -2.98177e-016
Spine  7.99796 2.00821 9.11118
Spine1  1.93607 3.91193 -5.63166
HEad  -10.3829 -0.452524 -0.395041
LeftShoulder1  -3.88251e-019 9.70628e-020 -3.87848e-018
LeftArm  -26.439 64.66 -70.8684
LeftForeArm  -0.890071 -11.008 -3.33073
LeftHand  -0.501767 -1.51744 9.09635
RightShoulder  8.14764 10.8656 37.8549
RightArm  34.3845 -41.954 20.5515
RightForeArm  0.292554 23.118 -12.5167
RightHand  -1.17164 4.85174 -13.1987
LeftUpLeg  -22.4808 9.73952 -6.24553
LeftLeg  23.8585 1.3834 8.24487
LeftFoot  -6.56992 0.324368 -5.99443
LeftToes  7.79675e-011 9.80247e-012 -3.28897e-011
43
root  2.87323 38.4533 -101.476 -1.7246 -0.970933 3.20667
RightUpLeg  6.42908 -5.8702 -1.45481
RightLeg  16.6436 -5.52525 -3.94483
RightFoot  -20.1954 0.427875 5.94732
RightToes  5.82077e-011 -3.18055e-015 -2.98177e-016
Spine  8.58948 1.68413 9.34774
Spine1  1.37748 3.63703 -6.22774
HEad  -10.6719 -0.664012 -0.385941
LeftShoulder1  -3.88251e-019 9.70628e-020 -3.87848e-018
LeftArm  -27.0851 65.3375 -70.8664
LeftForeArm  -0.518232 -8.92106 -3.29495
LeftHand  -0.373208 -0.312204 8.24367
RightShoulder  8.11713 10.8509 37.7393
RightArm  34.5834 -41.2036 21.337
RightForeArm  0.469927 23.7131 -12.8031
RightHand  -1.29843 6.07336 -13.0904
LeftUpLeg  -23.0297 7.42363 -6.1588
LeftLeg  21.8913 1.23079 7.54994
LeftFoot  -6.8953 0.27052 -5.33066
LeftToes  7.79675e-011 9.80247e-012 -3.28897e-011
